<svg width="30.021240" height="5.096008" viewBox="0 0 30.0212 5.09601" fill="none" xmlns="http://www.w3.org/2000/svg" xmlns:xlink="http://www.w3.org/1999/xlink">
	<desc>
			Created with Pixso.
	</desc>
	<defs/>
	<path id="1500 RUB" d="M20.132 4.99799L19.208 3.38799L18.676 3.38799L18.676 4.99799L17.556 4.99799L17.556 0.0979939L19.516 0.0979939C19.9827 0.0979939 20.3794 0.261327 20.706 0.587994C21.0327 0.914661 21.196 1.31133 21.196 1.77799C21.196 2.07666 21.112 2.35433 20.944 2.61099C20.7807 2.86299 20.5637 3.05899 20.293 3.19899L21.336 4.99799L20.132 4.99799ZM18.676 1.14799L18.676 2.40799L19.516 2.40799C19.67 2.40799 19.8007 2.34733 19.908 2.22599C20.02 2.10466 20.076 1.95533 20.076 1.77799C20.076 1.60066 20.02 1.45133 19.908 1.32999C19.8007 1.20866 19.67 1.14799 19.516 1.14799L18.676 1.14799ZM25.0415 4.64099C24.6868 4.94433 24.2342 5.09599 23.6835 5.09599C23.1328 5.09599 22.6802 4.94433 22.3255 4.64099C21.9708 4.33766 21.7935 3.92933 21.7935 3.41599L21.7935 0.0979939L22.9135 0.0979939L22.9135 3.31799C22.9135 3.77533 23.1702 4.00399 23.6835 4.00399C24.1968 4.00399 24.4535 3.77533 24.4535 3.31799L24.4535 0.0979939L25.5735 0.0979939L25.5735 3.41599C25.5735 3.92933 25.3962 4.33766 25.0415 4.64099ZM29.4192 2.45699C29.8206 2.71366 30.0212 3.08233 30.0212 3.56299C30.0212 3.98766 29.8696 4.33299 29.5662 4.59899C29.2629 4.86499 28.8872 4.99799 28.4392 4.99799L26.3812 4.99799L26.3812 0.0979939L28.2992 0.0979939C28.7379 0.0979939 29.1042 0.228661 29.3982 0.489994C29.6969 0.746661 29.8462 1.08266 29.8462 1.49799C29.8462 1.88999 29.7039 2.20966 29.4192 2.45699ZM28.2992 1.14799L27.5012 1.14799L27.5012 2.01599L28.2992 2.01599C28.4252 2.01599 28.5279 1.97633 28.6072 1.89699C28.6866 1.81299 28.7262 1.70799 28.7262 1.58199C28.7262 1.45599 28.6866 1.35333 28.6072 1.27399C28.5279 1.18999 28.4252 1.14799 28.2992 1.14799ZM28.4392 3.94799C28.5792 3.94799 28.6912 3.90599 28.7752 3.82199C28.8592 3.73333 28.9012 3.61899 28.9012 3.47899C28.9012 3.33899 28.8592 3.22699 28.7752 3.14299C28.6912 3.05433 28.5792 3.00999 28.4392 3.00999L27.5012 3.00999L27.5012 3.94799L28.4392 3.94799Z" fill="#345B42" fill-opacity="1.000000" fill-rule="evenodd"/>
	<path id="1500 RUB" d="M1.28099 0.0979939L2.26099 0.0979939L2.26099 4.99799L1.14099 4.99799L1.14099 1.28099L0.272993 1.51899L-7.31647e-06 0.559994L1.28099 0.0979939ZM4.74823 1.81999C5.2289 1.81999 5.6279 1.96466 5.94524 2.25399C6.26723 2.53866 6.42824 2.93999 6.42824 3.45799C6.42824 3.97133 6.25557 4.37266 5.91024 4.66199C5.5649 4.95133 5.14257 5.09599 4.64324 5.09599C4.23724 5.09599 3.88023 5.00966 3.57223 4.83699C3.26424 4.65966 3.0379 4.39599 2.89323 4.04599L3.85923 3.48599C3.98057 3.83133 4.2419 4.00399 4.64324 4.00399C4.86257 4.00399 5.02823 3.95266 5.14023 3.84999C5.25223 3.74733 5.30824 3.61666 5.30824 3.45799C5.30824 3.29933 5.25457 3.16866 5.14723 3.06599C5.0399 2.96333 4.88357 2.91199 4.67824 2.91199L3.14523 2.91199L3.34823 0.0979939L6.18324 0.0979939L6.18324 1.14799L4.39823 1.14799L4.34924 1.81999L4.74823 1.81999ZM10.2357 4.40299C9.88569 4.86499 9.39802 5.09599 8.77269 5.09599C8.14736 5.09599 7.65735 4.86499 7.30269 4.40299C6.95269 3.93633 6.77769 3.31799 6.77769 2.54799C6.77769 1.77799 6.95269 1.16199 7.30269 0.699994C7.65735 0.233328 8.14736 -5.72205e-06 8.77269 -5.72205e-06C9.39802 -5.72205e-06 9.88569 0.233328 10.2357 0.699994C10.5904 1.16199 10.7677 1.77799 10.7677 2.54799C10.7677 3.31799 10.5904 3.93633 10.2357 4.40299ZM7.89769 2.54799C7.89769 3.51866 8.18935 4.00399 8.77269 4.00399C9.35602 4.00399 9.64769 3.51866 9.64769 2.54799C9.64769 1.57733 9.35602 1.09199 8.77269 1.09199C8.18935 1.09199 7.89769 1.57733 7.89769 2.54799ZM14.6449 4.40299C14.2949 4.86499 13.8072 5.09599 13.1819 5.09599C12.5565 5.09599 12.0665 4.86499 11.7119 4.40299C11.3619 3.93633 11.1869 3.31799 11.1869 2.54799C11.1869 1.77799 11.3619 1.16199 11.7119 0.699994C12.0665 0.233328 12.5565 -5.72205e-06 13.1819 -5.72205e-06C13.8072 -5.72205e-06 14.2949 0.233328 14.6449 0.699994C14.9995 1.16199 15.1769 1.77799 15.1769 2.54799C15.1769 3.31799 14.9995 3.93633 14.6449 4.40299ZM12.3069 2.54799C12.3069 3.51866 12.5985 4.00399 13.1819 4.00399C13.7652 4.00399 14.0569 3.51866 14.0569 2.54799C14.0569 1.57733 13.7652 1.09199 13.1819 1.09199C12.5985 1.09199 12.3069 1.57733 12.3069 2.54799Z" fill="#57AF77" fill-opacity="1.000000" fill-rule="evenodd"/>
	<path id="1500 RUB" d="" fill="#FFFFFF" fill-opacity="1.000000" fill-rule="evenodd"/>
</svg>
